<?xml version="1.0" encoding="utf-8"?>
<!-- Generator: Adobe Illustrator 23.0.0, SVG Export Plug-In . SVG Version: 6.00 Build 0)  -->
<svg version="1.1" id="Capa_1" xmlns="http://www.w3.org/2000/svg" xmlns:xlink="http://www.w3.org/1999/xlink" x="0px" y="0px"
	 viewBox="0 0 1080 227" style="enable-background:new 0 0 1080 227;" xml:space="preserve">
<style type="text/css">
	.st0{fill-rule:evenodd;clip-rule:evenodd;fill:#CF9234;}
	.st1{fill-rule:evenodd;clip-rule:evenodd;fill:#01562C;}
</style>
<g>
	<g>
		<path class="st0" d="M420.51,193.02c44.94,0,81.48-36.33,81.48-81.01c0-44.68-36.54-81.02-81.48-81.16v6.4
			c41.44,0,75.03,33.55,75.03,74.75c0,41.06-33.6,74.61-75.03,74.75V193.02z M338.89,112.01c0,44.68,36.54,81.01,81.47,81.01
			c0,0,0,0,0.14,0v-6.26c-0.14,0-0.14,0-0.14,0c-41.44,0-75.03-33.55-75.03-74.75l0,0l0,0c0-41.21,33.59-74.75,75.03-74.75
			c0,0,0,0,0.14,0v-6.4c-0.14,0-0.14,0-0.14,0C375.43,30.85,338.89,67.32,338.89,112.01L338.89,112.01L338.89,112.01z"/>
		<g>
			<path class="st0" d="M421.21,90.98L421.21,90.98L421.21,90.98c7.56,0,12.87-3.48,15.54-5.71c2.38,0.84,12.18,4.04,12.18,4.04l0,0
				l0,0l-0.84-5.99l0,0l0,0c-0.42-1.53-6.3-37.86-26.87-37.86l0,0v7.38l0,0c9.66,0,15.54,15.17,18.33,25.48
				c-1.12-0.28-5.04-1.53-5.04-1.53l0,0l0,0l-1.54,1.95l0,0l0,0c0,0.14-4.34,4.87-11.62,4.87l0,0h-0.14V90.98L421.21,90.98
				L421.21,90.98z M394.47,83.19L394.47,83.19L394.47,83.19L394.47,83.19L394.47,83.19c0.14-1.67,6.3-37.72,26.74-37.72l0,0l0,0
				v7.38l0,0l0,0l0,0l0,0c-9.66,0-15.68,15.17-18.2,25.61c1.26-0.42,2.94-0.97,2.94-0.97l0,0l0,0l1.82-0.41l1.68,1.25l0,0l0,0
				c0,0.13,5.74,5.01,11.76,5.29l0,0v7.38l0,0c-6.58-0.28-12.32-3.9-15.12-5.71c-2.24,0.56-12.46,3.62-12.46,3.62l0,0l0,0
				L394.47,83.19z"/>
			<path class="st0" d="M434.51,94.04c-0.14,0-6.3,4.04-12.74,4.04c-7,0-13.58-4.04-13.72-4.04l0,0l0,0l-1.54-0.97l-1.54,0.55l0,0
				l0,0c-0.28,0-32.76,10.86-31.36,42.45c0.56,16.57,9.24,29.93,23.52,36.48c14,6.26,31.08,4.59,42.14-4.18
				c11.34-8.77,17.92-27.56,14-39.26c-1.82-5.56-6.16-8.91-11.9-9.33c-3.08,0-6.02,1.11-8.26,3.06c-2.94,2.79-4.34,6.69-4.9,9.89
				c-4.34-0.98-10.78-1.54-16.94,2.22c-14.98,9.75-11.76,24.78-11.48,25.47l0,0l0,0l7.14-1.25l0,0l0,0
				c-0.14-0.56-2.38-11,8.54-17.82c6.3-4.04,14.14-0.55,14.14-0.55l0,0l0,0l5.18,2.36l0.14-5.71l0,0l0,0c0-1.68,0.7-6.96,3.08-9.47
				c0.84-0.55,1.96-0.97,3.08-0.97c1.68,0.28,3.92,0.7,5.18,4.32c2.66,7.93-1.82,23.81-11.48,31.32c-9.1,7.1-23.1,8.35-34.58,3.06
				c-11.62-5.29-18.62-16.14-19.18-29.93c0-0.55,0-0.97,0-1.53c0-21.58,19.18-31.04,24.64-33.13c2.94,1.53,9.38,4.31,16.1,4.31
				c6.16,0,11.9-2.64,14.83-4.31c5.19,2.64,21.84,12.95,23.24,31.46c0,1.67,0.28,3.2,0.28,4.73c0,23.94-14.84,33.27-15.54,33.69l0,0
				l0,0l3.78,6.13l0,0l0,0c0.84-0.42,21.42-12.8,18.76-45.24c-2.1-26.17-28-37.72-29.12-38.14l0,0l0,0l-1.82-0.69L434.51,94.04
				L434.51,94.04L434.51,94.04z"/>
		</g>
	</g>
	<g>
		<path class="st1" d="M95.6,74l-0.84,12.11l0,0c-0.42,0-0.84-0.28-1.26-0.42c-7-2.65-12.6-3.9-16.52-3.9
			c-8.4,0-14.98,2.64-19.88,7.79c-5.18,5.01-7.7,11.97-7.7,20.6c0,8.21,2.66,14.61,7.84,19.77c5.18,5.01,11.9,7.52,20.44,7.52
			c2.8,0,7-0.83,12.74-2.79c1.96-0.7,3.5-1.25,4.48-1.53l0,0l1.26,12.11l0,0c-0.98,0.14-2.24,0.56-4.06,0.97
			c-7,2.09-12.18,3.06-15.68,3.06c-13.16,0-23.52-3.48-31.08-10.57C37.64,131.77,34,122.3,34,110.19c0-12.11,3.92-21.72,11.34-29.09
			c7.56-7.52,17.64-11.28,30.24-11.28c3.92,0,9.1,1.11,15.68,3.06C93.21,73.3,94.76,73.72,95.6,74L95.6,74L95.6,74z"/>
		<polygon class="st1" points="101.34,65.65 115.47,65.65 115.47,147.78 101.34,147.78 101.34,65.65 		"/>
		<path class="st1" d="M124.29,92.24h14.28v55.54h-14.28V92.24L124.29,92.24L124.29,92.24L124.29,92.24z M133.81,65.37h12.6
			l-16.24,19.21h-6.86L133.81,65.37L133.81,65.37z"/>
		<path class="st1" d="M200.31,114.65v33.13h-14.42v-29.93l0,0c0-5.15-0.84-9.05-2.52-11.55c-1.82-2.51-4.48-3.62-8.4-3.62
			c-3.92,0-7,1.53-9.38,4.59c-2.38,3.34-3.64,7.38-3.64,12.95l0,0v27.56h-14.14V92.24h13.02v10.02l0,0
			c1.96-3.76,4.76-6.54,8.12-8.63c3.36-1.81,7.28-2.93,11.62-2.93c6.58,0,11.48,2.09,14.84,6.27
			C198.63,101.01,200.31,106.99,200.31,114.65L200.31,114.65L200.31,114.65z"/>
		<path class="st1" d="M207.31,92.24h14.14v55.54h-14.14V92.24L207.31,92.24L207.31,92.24L207.31,92.24z M207.31,67.18h14.14V81.1
			h-14.14V67.18L207.31,67.18z"/>
		<path class="st1" d="M270.86,93.63l-1.12,11.28l0,0c-2.52-1.12-4.62-1.81-6.44-2.23c-1.82-0.42-3.36-0.7-4.76-0.7
			c-5.32,0-9.66,1.67-13.02,5.02c-3.22,3.2-4.62,7.51-4.62,12.8c0,5.43,1.4,9.75,4.62,13.22c3.36,3.2,7.7,5.01,12.88,5.01
			c1.82,0,3.92-0.28,5.74-0.98c1.82-0.41,4.06-1.39,6.58-2.64l0,0l0.42,11.42l0,0c-3.92,1.25-7,2.36-9.24,2.78
			c-2.1,0.28-4.34,0.55-6.16,0.55c-9.09,0-16.38-2.64-21.7-7.93c-5.6-5.56-8.26-12.8-8.26-21.57c0-8.49,2.94-15.45,8.54-20.74
			c5.46-5.57,12.46-8.22,21.14-8.22c3.35,0,7.42,0.7,12.74,2.09C269.46,93.21,270.3,93.35,270.86,93.63L270.86,93.63L270.86,93.63z"
			/>
		<path class="st1" d="M304.46,121.19c-2.24,0-4.34,0.28-6.16,0.42l0,0v-8.35l0,0c1.26,0,2.52,0,3.92,0l0,0h7.42v-0.83l0,0
			c0-3.9-1.26-6.68-3.78-8.91c-1.82-1.67-4.48-2.79-7.56-2.92l0,0V90.7l0,0c0.14,0,0.56,0,0.84,0c8.4,0,14.42,2.09,18.34,6.27
			c3.92,4.04,5.74,10.3,5.74,19.21l0,0v31.6h-12.6l-0.14-9.05l0,0c-2.52,3.48-5.18,6.12-8.26,7.79c-1.26,0.83-2.66,1.25-3.92,1.81
			l0,0v-9.47l0,0c2.8-0.41,5.32-1.81,7.42-4.03c2.38-2.65,3.92-6.41,3.92-10.58l0,0v-3.06H304.46L304.46,121.19L304.46,121.19z
			 M298.3,121.61L298.3,121.61L298.3,121.61v-8.35l0,0c-7.84,0.41-13.86,1.81-18.06,4.59c-4.76,3.06-7.28,7.52-7.28,13.64
			c0,5.42,1.68,9.46,5.18,12.81c3.22,3.2,7.84,4.87,13.3,4.87c2.52,0,4.62-0.27,6.86-0.83l0,0v-9.47l0,0c-0.84,0-1.4,0.28-2.24,0.28
			c-2.66,0-5.04-0.83-6.58-2.23c-1.68-1.67-2.52-3.76-2.52-5.98c0-3.2,1.4-5.71,4.34-7.38C293.12,122.72,295.36,122.02,298.3,121.61
			L298.3,121.61z M298.3,90.7L298.3,90.7L298.3,90.7c-2.94,0-6.02,0.42-8.82,1.12c-3.08,0.56-6.44,1.53-9.65,2.78l0,0l0.14,10.3l0,0
			c2.66-1.39,5.6-2.64,8.26-3.34c2.66-0.84,5.18-1.25,7.56-1.25c0.84,0,1.68,0,2.52,0.28l0,0V90.7z"/>
	</g>
	<g>
		<path class="st1" d="M557.98,72.61l-1.26,11.97l0,0c-2.94-1.4-5.74-2.23-8.54-2.78c-2.66-0.84-5.46-1.12-7.98-1.12
			c-3.92,0-7,0.84-9.24,2.37c-2.24,1.39-3.36,3.48-3.36,6.13c0,3.48,3.92,7.1,12.04,11.14c0.83,0.41,1.4,0.7,1.82,0.84
			c7.15,3.9,12.32,7.65,14.98,11.13c2.94,3.48,4.2,7.52,4.2,12.25c0,6.96-2.66,12.8-7.84,17.26c-5.32,4.45-11.9,6.82-20.58,6.82
			c-3.5,0-9.52-1.25-17.77-3.9c-0.99-0.28-1.54-0.42-1.97-0.7l0,0l1.4-13.08l0,0c4.06,2.09,7.56,3.76,10.5,4.45
			c2.94,0.83,5.6,1.25,7.84,1.25c3.92,0,7.14-0.84,9.65-2.65c2.25-1.81,3.5-4.31,3.5-7.1c0-3.62-3.78-7.65-11.76-12.25
			c-0.56-0.14-0.98-0.56-1.27-0.56c-0.42-0.14-0.83-0.42-1.54-0.84c-6.01-3.2-10.22-6.13-12.6-8.77c-1.67-1.81-3.07-4.17-3.91-6.4
			c-0.84-2.37-1.26-4.87-1.26-7.52c0-6.54,2.52-11.69,7.41-15.73c4.9-3.9,11.48-5.99,20.01-5.99c2.8,0,7.57,0.97,13.73,2.64
			C555.88,72.19,557.14,72.33,557.98,72.61L557.98,72.61L557.98,72.61z"/>
		<path class="st1" d="M594.1,120.22c-2.25,0-4.2,0.28-6.16,0.41l0,0v-8.35l0,0c1.26,0,2.66,0,3.92,0l0,0h7.29v-0.84l0,0
			c0-3.89-1.13-6.82-3.51-9.05c-1.97-1.67-4.34-2.65-7.7-2.78l0,0v-9.88l0,0c0.42,0,0.7,0,1.12,0c8.12,0,14.14,2.09,17.92,6.13
			c3.77,4.17,5.74,10.44,5.74,19.21l0,0v31.6h-12.6l-0.13-8.91l0,0c-2.39,3.48-5.04,6.12-8.13,7.65c-1.26,0.83-2.38,1.25-3.92,1.95
			l0,0v-9.46l0,0c2.94-0.42,5.32-1.81,7.42-4.04c2.52-2.65,3.79-6.4,3.79-10.58l0,0v-3.06H594.1L594.1,120.22L594.1,120.22z
			 M587.94,120.63L587.94,120.63L587.94,120.63v-8.35l0,0c-7.56,0.42-13.58,1.81-17.64,4.45c-4.75,3.06-7.28,7.66-7.28,13.78
			c0,5.28,1.69,9.46,5.18,12.67c3.36,3.34,7.84,5.01,13.16,5.01c2.24,0,4.62-0.27,6.58-0.83l0,0v-9.46l0,0
			c-0.56,0-1.4,0.14-1.96,0.14c-2.8,0-5.04-0.7-6.58-2.23c-1.68-1.53-2.52-3.62-2.52-5.84c0-3.34,1.39-5.7,4.33-7.24
			C583.04,121.61,585.27,121.05,587.94,120.63L587.94,120.63z M587.94,89.73L587.94,89.73L587.94,89.73c-2.79,0-5.74,0.42-8.53,0.97
			c-3.22,0.7-6.31,1.67-9.52,2.93l0,0l0.13,10.16l0,0c2.66-1.39,5.46-2.64,8.12-3.2c2.65-0.84,5.04-1.25,7.55-1.25
			c0.84,0,1.68,0,2.24,0.28l0,0V89.73z"/>
		<path class="st1" d="M672.63,113.67v32.99h-14.28v-29.93l0,0c0-5.15-0.84-9.05-2.65-11.41c-1.69-2.5-4.35-3.76-7.99-3.76
			c-3.91,0-7.27,1.67-9.52,4.73c-2.23,3.34-3.5,7.37-3.5,12.94l0,0v27.42h-14V91.12h12.74v10.02l0,0c2.1-3.62,4.76-6.54,8.12-8.49
			c3.22-1.95,7.14-2.92,11.49-2.92c6.29,0,11.34,2.09,14.55,6.13C670.94,100.03,672.63,105.88,672.63,113.67L672.63,113.67
			L672.63,113.67z"/>
		<path class="st1" d="M698.25,72.89v18.24h13.3v10.44h-13.3v24.5l0,0c0,4.04,0.69,7.1,1.96,8.77c1.39,1.81,3.5,2.92,6.3,2.92
			c0.7,0,1.54-0.28,2.52-0.28c0.84-0.14,1.82-0.42,2.8-0.83l0,0l0.28,10.02l0,0c-1.68,0.42-3.36,0.83-4.9,1.11
			c-1.67,0.14-3.08,0.14-4.76,0.14c-6.58,0-11.2-1.68-14-4.87c-2.94-3.07-4.2-8.63-4.2-16.15l0,0v-25.33h-10.92V91.12h11.62v-13.5
			L698.25,72.89L698.25,72.89z"/>
		<path class="st1" d="M746.12,120.22c-2.38,0-4.34,0.28-6.29,0.41l0,0v-8.35l0,0c1.26,0,2.52,0,3.91,0l0,0h7.28v-0.84l0,0
			c0-3.89-1.25-6.82-3.49-9.05c-2.1-1.67-4.48-2.65-7.7-2.78l0,0v-9.88l0,0c0.28,0,0.7,0,0.84,0c8.26,0,14.28,2.09,18.2,6.13
			c3.63,4.17,5.46,10.44,5.46,19.21l0,0v31.6H752l-0.13-8.91l0,0c-2.25,3.48-5.04,6.12-8.26,7.65c-1.26,0.83-2.52,1.25-3.78,1.95
			l0,0v-9.46l0,0c2.94-0.42,5.46-1.81,7.42-4.04c2.52-2.65,3.77-6.4,3.77-10.58l0,0v-3.06H746.12L746.12,120.22L746.12,120.22z
			 M739.82,120.63L739.82,120.63L739.82,120.63v-8.35l0,0c-7.69,0.42-13.58,1.81-17.64,4.45c-4.9,3.06-7.28,7.66-7.28,13.78
			c0,5.28,1.68,9.46,5.04,12.67c3.49,3.34,7.84,5.01,13.3,5.01c2.37,0,4.62-0.27,6.58-0.83l0,0v-9.46l0,0c-0.7,0-1.4,0.14-2.25,0.14
			c-2.65,0-4.75-0.7-6.29-2.23c-1.68-1.53-2.52-3.62-2.52-5.84c0-3.34,1.41-5.7,4.34-7.24
			C734.78,121.61,737.03,121.05,739.82,120.63L739.82,120.63z M739.82,89.73L739.82,89.73L739.82,89.73c-2.8,0-5.74,0.42-8.54,0.97
			c-3.08,0.7-6.45,1.67-9.66,2.93l0,0l0.14,10.16l0,0c2.94-1.39,5.6-2.64,7.98-3.2c2.8-0.84,5.18-1.25,7.7-1.25
			c0.84,0,1.68,0,2.38,0.28l0,0V89.73z"/>
		<polygon class="st1" points="794.42,70.66 809.26,70.66 809.26,146.67 794.42,146.67 794.42,70.66 		"/>
		<path class="st1" d="M853.49,92.79l-0.99,10.72l0,0c-2.51-1.25-5.03-2.36-7.27-2.92c-2.38-0.56-4.76-0.97-7-0.97
			c-2.67,0-4.48,0.42-5.88,1.39c-1.25,0.83-1.96,2.09-1.96,3.62c0,2.5,2.79,5.15,8.54,7.66c0.56,0.14,1.26,0.56,1.4,0.56
			c6.03,2.65,9.94,5.29,12.17,7.79c2.25,2.65,3.23,5.57,3.23,9.47c0,5.29-1.97,9.47-6.16,12.53c-4.07,3.06-9.81,4.73-16.8,4.73
			c-3.08,0-6.02-0.28-8.96-0.83c-2.8-0.42-5.46-1.11-8.12-2.09l0,0l0.7-11l0,0c2.79,1.39,5.46,2.36,8.12,3.06
			c2.66,0.55,5.33,0.97,7.98,0.97c2.94,0,4.89-0.56,6.44-1.39c1.54-1.11,2.38-2.23,2.38-4.18c0-2.64-3.65-5.84-10.92-9.46
			c-0.14,0-0.14,0-0.14-0.14c-5.6-2.65-9.09-5.15-11.06-7.66c-1.96-2.23-2.79-5.01-2.79-8.35c0-4.88,1.96-8.77,6.02-12.11
			c4.19-3.06,9.52-4.45,16.1-4.45c1.68,0,3.63,0.28,5.74,0.56C846.5,90.7,849.43,91.54,853.49,92.79L853.49,92.79L853.49,92.79z"/>
		<path class="st1" d="M889.89,120.22c-2.23,0-4.19,0.28-6.16,0.41l0,0v-8.35l0,0c1.26,0,2.52,0,3.93,0l0,0h7.28v-0.84l0,0
			c0-3.89-1.26-6.82-3.5-9.05c-2.09-1.67-4.61-2.65-7.7-2.78l0,0v-9.88l0,0c0.27,0,0.7,0,0.85,0c8.26,0,14.27,2.09,18.19,6.13
			c3.64,4.17,5.46,10.44,5.46,19.21l0,0v31.6h-12.32l-0.14-8.91l0,0c-2.38,3.48-5.04,6.12-8.26,7.65c-1.12,0.83-2.52,1.25-3.78,1.95
			l0,0v-9.46l0,0c2.94-0.42,5.46-1.81,7.42-4.04c2.52-2.65,3.78-6.4,3.78-10.58l0,0v-3.06H889.89L889.89,120.22L889.89,120.22z
			 M883.73,120.63L883.73,120.63L883.73,120.63v-8.35l0,0c-7.55,0.42-13.57,1.81-17.64,4.45c-4.9,3.06-7.28,7.66-7.28,13.78
			c0,5.28,1.68,9.46,5.05,12.67c3.5,3.34,7.84,5.01,13.29,5.01c2.24,0,4.62-0.27,6.58-0.83l0,0v-9.46l0,0
			c-0.84,0-1.39,0.14-2.24,0.14c-2.66,0-4.77-0.7-6.43-2.23c-1.55-1.53-2.39-3.62-2.39-5.84c0-3.34,1.4-5.7,4.33-7.24
			C878.7,121.61,880.93,121.05,883.73,120.63L883.73,120.63z M883.73,89.73L883.73,89.73L883.73,89.73c-2.8,0-5.74,0.42-8.67,0.97
			c-2.94,0.7-6.3,1.67-9.67,2.93l0,0l0.28,10.16l0,0c2.8-1.39,5.61-2.64,7.98-3.2c2.66-0.84,5.18-1.25,7.7-1.25
			c0.84,0,1.54,0,2.38,0.28l0,0V89.73z"/>
		<path class="st1" d="M944.34,100.59c-0.28,0-0.41,0-0.7,0l0,0V90.15l0,0c1.69-0.14,3.08-0.42,4.76-0.42c7,0,12.74,2.64,16.94,7.8
			c4.2,5.15,6.58,11.83,6.58,20.46c0,8.63-2.38,15.87-6.58,21.3c-4.34,5.57-10.09,8.21-16.94,8.21c-1.68,0-3.08,0-4.76-0.42l0,0
			v-10.44l0,0c0.29,0,0.29,0,0.29,0c4.06,0,7.14-1.67,9.65-4.88c2.38-3.06,3.5-7.37,3.5-12.8c0-5.43-1.12-10.02-3.5-13.5
			C951.35,102.26,948.26,100.59,944.34,100.59L944.34,100.59L944.34,100.59L944.34,100.59z M943.64,100.59L943.64,100.59V90.15l0,0
			c-2.09,0.42-3.91,0.97-5.46,2.09c-3.22,1.53-5.88,4.03-7.84,7.38l0,0V64.53h-14v82.13h12.46v-11.28l0,0
			c2.1,3.9,4.76,6.96,8.25,9.05c2.1,1.39,4.35,2.23,6.58,2.64l0,0v-10.44l0,0c-3.91,0-7.14-1.67-9.66-4.88
			c-2.52-3.34-3.64-7.51-3.64-12.94c0-5.7,1.12-10.3,3.92-13.36C936.51,102.26,939.73,100.59,943.64,100.59z"/>
		<path class="st1" d="M1027.22,118.4v4.45h-25.48v-8.77h12.74l0,0c-0.13-4.73-1.68-8.35-3.91-11c-2.1-2.78-4.91-3.9-8.4-3.9
			c-0.28,0-0.42,0-0.42,0l0,0v-9.46l0,0c0.15,0,0.15,0,0.42,0c7.97,0,14.14,2.51,18.48,7.52
			C1024.97,102.26,1027.22,109.36,1027.22,118.4L1027.22,118.4L1027.22,118.4L1027.22,118.4L1027.22,118.4z M1001.74,137.48
			c1.41,0.28,3.09,0.42,4.9,0.42c2.94,0,5.6-0.42,8.26-0.98c2.66-0.69,5.32-1.67,7.84-3.06l0,0v11l0,0
			c-2.66,1.25-5.61,2.09-8.68,2.5c-3.08,0.56-6.44,0.83-9.95,0.83c-0.69,0-1.54,0-2.38,0l0,0V137.48L1001.74,137.48L1001.74,137.48z
			 M1001.74,122.86L1001.74,122.86v-8.77h-13.01l0,0c0.7-4.73,2.1-8.35,4.34-11c2.24-2.78,5.18-3.9,8.68-3.9l0,0v-9.46l0,0
			c-7.84,0-14.27,2.64-19.17,7.8c-4.91,5.29-7.42,12.11-7.42,20.46c0,9.47,2.51,16.85,7.7,22.13c4.62,5.01,10.92,7.66,18.89,8.07
			l0,0v-10.72l0,0c-3.08-0.56-5.6-1.81-7.7-3.62c-3.08-2.65-4.91-6.4-5.32-11l0,0H1001.74z"/>
		<polygon class="st1" points="1031,64.53 1045,64.53 1045,146.67 1031,146.67 1031,64.53 		"/>
	</g>
</g>
</svg>
