    <svg>
    <path class="cls-3" d="M158.8,72.22a12,12,0,0,1,12,12v49.47l-2,10v52.53a12,12,0,0,1-12,12h-72a12,12,0,0,1-12-12V143.69l-2-10V84.22a12,12,0,0,1,12-12h76m0-5.78h-76A17.8,17.8,0,0,0,65,84.22v50l.11.56L67,144.26v52A17.8,17.8,0,0,0,84.8,214h72a17.8,17.8,0,0,0,17.78-17.79v-52l1.89-9.44.11-.56v-50A17.8,17.8,0,0,0,158.8,66.44Z"/>
    <line class="cls-4" x1="89.8" y1="192.43" x2="101.8" y2="192.43"/>
    <line class="cls-4" x1="139.8" y1="192.43" x2="151.8" y2="192.43"/>
    <line class="cls-4" x1="114.8" y1="192.43" x2="126.8" y2="192.43"/>
    <line class="cls-4" x1="89.8" y1="181.34" x2="101.8" y2="181.34"/>
    <line class="cls-4" x1="139.8" y1="181.34" x2="151.8" y2="181.34"/>
    <line class="cls-4" x1="114.8" y1="181.34" x2="126.8" y2="181.34"/>
    <line class="cls-4" x1="89.8" y1="170.24" x2="101.8" y2="170.24"/>
    <line class="cls-4" x1="139.8" y1="170.24" x2="151.8" y2="170.24"/>
    <line class="cls-4" x1="114.8" y1="170.24" x2="126.8" y2="170.24"/>
    <rect class="cls-5" x="112.78" y="146.21" width="16.04" height="10.94"/>
    <rect class="cls-4" x="85.76" y="102.8" width="70.08" height="30.89"/>
    <polygon class="cls-5" points="153.84 157.15 139.8 157.15 139.8 146.21 155.84 146.21 153.84 157.15"/>
    <polygon class="cls-5" points="87.76 157.15 101.8 157.15 101.8 146.21 85.76 146.21 87.76 157.15"/>
    <path class="cls-4" d="M155.84,87.67H85.76V53.78a12,12,0,0,1,12-12h70a11.94,11.94,0,0,0-11.89,12Z"/>
    <line class="cls-4" x1="142.8" y1="56.67" x2="98.8" y2="56.67"/>
    <rect class="cls-6" width="250" height="250"/>
</svg>