<?xml version="1.0" encoding="utf-8"?>
<!-- Generator: Adobe Illustrator 22.1.0, SVG Export Plug-In . SVG Version: 6.00 Build 0)  -->
<svg version="1.1" id="Layer_1" xmlns="http://www.w3.org/2000/svg" xmlns:xlink="http://www.w3.org/1999/xlink" x="0px" y="0px"
	 viewBox="0 0 620 620" style="enable-background:new 0 0 620 620;" xml:space="preserve">
<style type="text/css">
	.st0{fill:none;stroke:#5F9ACF;stroke-width:7;stroke-miterlimit:10;}
	.st1{fill:none;stroke:#343434;stroke-width:11;stroke-miterlimit:10;}
	.st2{fill:#343434;}
	.st3{fill:#5F9ACF;}
</style>
<circle class="st0" cx="310" cy="314.9" r="283.1"/>
<circle class="st1" cx="310" cy="314.9" r="274"/>
<g>
	<path class="st2" d="M375.6,488.4c-20-0.5-38.1-7.2-52.6-21.6c-53.2-53-106.4-106.1-159.4-159.4c-27.7-27.8-27.8-75.7-0.8-104.4
		c10.8-11.4,21.9-22.6,33.1-33.6c12.3-12.1,32.7-12.6,45.2-0.6c18.2,17.4,36.1,35,53.7,52.9c12.2,12.4,11.6,33.1-0.7,45.7
		c-6.6,6.7-13.3,13.3-20,20c-2.7,2.7-2.7,4.1,0,6.9c20.8,21.1,41.6,42.1,62.4,63.2c2.6,2.7,4.2,2.7,6.9,0
		c6.5-6.4,12.9-12.9,19.4-19.3c13.6-13.5,33.7-13.6,47.3-0.1c16.9,16.7,33.7,33.4,50.5,50.1c14,13.9,14,33.4,0,47.3
		c-10.1,10.1-20.1,20.3-30.3,30.3C415.3,480.6,397,487.9,375.6,488.4z M376.4,466.9c14.1-0.3,26.8-4.8,37.2-14.6
		c11-10.5,21.6-21.4,32.3-32.2c4.6-4.6,4.4-10.8-0.2-15.4c-16.8-17-33.6-34.1-50.4-51.1c-5.3-5.3-11.8-5.3-17.1-0.1
		c-6.5,6.5-13,13.1-19.6,19.5c-10.6,10.4-26.3,10.5-36.8,0c-21.4-21.3-42.8-42.7-64.1-64.1c-10.2-10.3-10-26,0.2-36.3
		c6.4-6.4,12.7-12.8,19.1-19.1c6.3-6.3,6.2-11.7-0.1-18c-16.6-16.6-33.3-33.3-49.9-49.9c-5.1-5.1-11.2-5.2-16.3-0.1
		c-10.1,10-20.2,20-30.1,30.1c-21.7,22.1-21.8,56.5,0.1,78.4c52.1,52.3,104.2,104.5,156.4,156.7C348,461.5,361.1,466.6,376.4,466.9z
		"/>
	<path class="st3" d="M436,264.6c0,6.3,0,12.5,0,18.6c0,10-5.7,15.7-15.6,15.7c-12.5,0-24.9,0-37.4,0c-10.1,0-15.9-5.7-15.9-15.8
		c0-6.2,0-12.3,0-18.9c-6.3,0-12.5,0-18.6,0c-1.8,0-3.7-0.1-5.4-0.5c-5.8-1.5-10.1-6.5-10.2-12.5c-0.2-14.3-0.2-28.6,0-42.9
		c0.1-7.5,6.3-13.2,13.9-13.3c6.8-0.1,13.5,0,20.7,0c0-6.3,0-12.4,0-18.4c0-1.9,0-3.9,0.5-5.7c1.5-6.1,7-10.4,13.3-10.5
		c13.6-0.1,27.2-0.1,40.8,0c7.5,0.1,13.6,5.9,13.8,13.4c0.2,5.8,0.1,11.6,0.1,17.3c0,4.9-0.5,4.3,4.5,4.3c5.2,0,10.3,0,15.5,0
		c8.8,0.1,14.6,5.9,14.7,14.8c0.1,13.2,0.1,26.4,0,39.5c-0.1,8.8-6.1,14.6-14.8,14.6c-6.3,0-12.6,0-18.9,0
		C436.8,264.3,436.6,264.4,436,264.6z M414.5,276.9c0-6.8,0-13.4,0-20c0.1-8.4,6.2-14.5,14.6-14.5c5.7,0,11.4,0,17,0
		c1,0,1.9,0,2.8,0c0-8.8,0-17,0-25.6c-6.8,0-13.5,0.1-20.2,0c-8.1-0.1-14.2-6.2-14.3-14.3c0-2.7,0-5.5,0-8.2c0-4,0-8,0-11.9
		c-8.8,0-17.1,0-25.5,0c0,2.8,0,5.3,0,7.8c0,4.2,0.1,8.3,0,12.5c-0.2,7.9-6.3,14-14.2,14.1c-6.8,0.1-13.5,0-20.2,0
		c0,8.7,0,17.1,0,25.6c6.4,0,12.6,0,18.8,0c9.9,0,15.7,5.8,15.7,15.7c0,6.3,0,12.5,0,18.9C397.6,276.9,405.9,276.9,414.5,276.9z"/>
	<path class="st2" d="M210.4,231c-6.3-0.2-9.8-2.4-11.6-6.7c-1.8-4.1-1.3-8.2,1.9-11.5c5.2-5.4,10.5-10.7,15.9-15.9
		c4.6-4.3,10.8-4.2,15,0c4.5,4.6,4.6,10.8,0.1,15.4c-5,5.1-9.9,10.2-15.1,15C214.5,229.3,211.7,230.3,210.4,231z"/>
	<path class="st2" d="M184.8,254.4c-6,0-11.2-5.3-11.1-11.3c0.1-5.7,5.4-10.9,11.2-11c5.9-0.1,11.3,5.2,11.3,11.1
		C196.3,249.6,191.3,254.4,184.8,254.4z"/>
</g>
</svg>
